<?xml version="1.0" standalone="no"?>
<!DOCTYPE svg PUBLIC "-//W3C//DTD SVG 20010904//EN"
 "http://www.w3.org/TR/2001/REC-SVG-20010904/DTD/svg10.dtd">
<svg version="1.0" xmlns="http://www.w3.org/2000/svg"
 width="300.000000pt" height="83.000000pt" viewBox="0 0 300.000000 83.000000"
 preserveAspectRatio="xMidYMid meet">
<metadata>
Created by potrace 1.10, written by Peter Selinger 2001-2011
</metadata>
<g transform="translate(0.000000,83.000000) scale(0.100000,-0.100000)"
fill="#000000" stroke="none">
<path d="M225 696 c-5 -2 -23 -7 -38 -10 -16 -4 -48 -25 -73 -48 -78 -72 -96
-201 -43 -305 63 -122 239 -150 349 -56 25 22 40 29 40 20 0 -8 9 -26 21 -41
16 -21 29 -26 64 -26 60 0 75 23 75 115 0 70 13 117 24 85 2 -8 7 -33 11 -55
4 -21 13 -52 22 -68 10 -21 12 -32 4 -40 -28 -28 3 -93 59 -122 38 -20 152
-20 189 0 34 17 81 70 81 91 0 18 11 18 46 -1 23 -12 51 -13 129 -9 55 4 105
11 112 16 7 6 19 5 32 -1 28 -15 84 -14 107 3 15 12 20 30 24 103 3 49 9 88
15 88 6 0 12 -39 15 -87 3 -59 10 -92 20 -102 21 -21 82 -23 110 -3 19 13 27
14 49 3 14 -7 44 -12 66 -10 69 4 239 4 270 1 17 -2 39 2 51 10 18 11 25 11
52 -3 40 -19 81 -8 99 27 7 13 13 56 13 95 0 51 4 75 15 84 21 18 32 -16 34
-110 1 -41 7 -80 12 -86 17 -21 59 -25 91 -10 24 12 35 13 52 4 34 -18 78 -11
104 18 l22 26 37 -32 c30 -27 42 -31 70 -27 40 7 63 23 63 45 0 8 -18 41 -40
73 -22 32 -40 65 -40 74 0 8 13 29 29 47 47 54 53 73 32 92 -22 20 -91 21
-117 1 -34 -26 -44 -18 -44 33 0 59 -20 82 -72 82 -48 0 -66 -23 -70 -92 l-3
-57 -43 29 c-36 24 -50 28 -90 24 -26 -3 -71 -4 -101 -4 -36 1 -59 -4 -71 -15
-15 -14 -18 -14 -23 -1 -4 9 -1 29 4 46 9 24 8 35 -5 55 -38 58 -123 32 -119
-36 2 -19 3 -41 2 -49 0 -8 -3 -61 -5 -117 l-5 -103 -64 0 c-100 0 -95 -8 -95
150 0 155 -6 170 -72 170 -49 0 -68 -25 -68 -88 0 -29 -3 -52 -6 -52 -3 0 -21
12 -41 27 -28 22 -46 27 -82 26 -25 0 -73 -1 -105 -2 -46 0 -64 -5 -82 -22
l-23 -21 -52 26 c-29 14 -68 26 -86 26 -37 0 -98 -23 -123 -45 -15 -13 -19
-12 -41 11 -20 22 -31 25 -74 23 -27 -1 -67 1 -87 5 -27 6 -51 3 -86 -9 -44
-16 -52 -16 -71 -3 -25 17 -166 13 -190 -5 -10 -9 -17 -6 -27 8 -28 39 -67 76
-94 90 -28 14 -126 28 -145 21z m1809 -29 c12 -9 17 -23 14 -42 -2 -24 -8 -31
-31 -33 -51 -6 -74 33 -40 70 19 21 33 23 57 5z m-1677 -23 c74 -36 109 -129
90 -239 -35 -206 -333 -203 -366 4 -17 107 19 199 91 234 43 22 140 22 185 1z
m1394 -150 l-3 -166 88 3 88 3 1 -37 2 -37 -129 0 -128 0 0 200 0 200 43 0 42
0 -4 -166z m761 59 l3 -106 45 56 c43 54 47 56 93 57 26 0 47 -3 47 -6 0 -3
-25 -34 -55 -69 -31 -35 -51 -66 -46 -69 8 -5 80 -104 104 -143 6 -10 -4 -13
-42 -13 -49 0 -51 1 -88 55 -21 30 -42 53 -48 51 -5 -1 -11 -26 -13 -54 l-3
-52 -42 0 -42 0 2 197 c2 109 3 199 3 201 0 1 18 2 40 2 l39 0 3 -107z m-1930
-18 c-4 -19 -3 -19 18 3 12 13 33 22 51 22 29 0 30 -2 27 -37 -3 -33 -6 -38
-30 -38 -50 -1 -58 -18 -58 -126 l0 -99 -45 0 -45 0 0 151 0 150 43 -3 c36 -3
42 -6 39 -23z m288 5 c25 -25 32 -25 28 -2 -2 14 5 18 40 20 l42 3 0 -156 c0
-177 -8 -207 -65 -231 -44 -18 -116 -18 -160 0 -34 15 -73 61 -61 74 11 11 78
1 102 -15 47 -31 104 4 104 64 0 13 -5 12 -25 -7 -47 -44 -140 -23 -172 41
-17 32 -16 122 1 163 8 18 24 41 37 50 33 23 104 21 129 -4z m391 -18 c28 -32
29 -35 29 -147 l0 -115 -45 0 c-40 0 -45 3 -45 23 -1 19 -2 20 -10 5 -17 -29
-73 -41 -113 -24 -43 17 -59 45 -55 93 4 50 41 75 118 81 55 4 61 6 58 26 -2
16 -11 22 -41 24 -26 2 -39 -1 -43 -12 -4 -11 -19 -16 -45 -16 -44 0 -51 19
-21 57 25 32 60 43 126 40 52 -3 62 -7 87 -35z m159 17 l0 -20 26 20 c41 32
98 28 135 -8 29 -29 29 -30 29 -150 l0 -121 -45 0 -45 0 0 103 c0 109 -7 127
-47 127 -41 0 -55 -38 -51 -139 l3 -91 -45 0 -45 0 2 147 c1 82 3 149 3 151 0
1 18 2 40 2 34 0 40 -3 40 -21z m630 -129 l0 -150 -42 0 -43 0 2 147 c1 82 2
149 3 151 0 1 18 2 40 2 l40 0 0 -150z m140 128 l0 -22 20 22 c30 32 99 30
137 -2 27 -24 28 -27 32 -150 l3 -126 -46 0 -46 0 0 103 c0 67 -4 107 -12 115
-17 17 -48 15 -70 -5 -15 -13 -18 -32 -18 -115 l0 -98 -45 0 -45 0 0 150 0
150 45 0 c40 0 45 -3 45 -22z"/>
<path d="M223 574 c-17 -9 -37 -29 -44 -46 -28 -67 -4 -167 46 -190 35 -16 92
-2 111 27 72 110 -9 261 -113 209z m67 -34 c24 -13 44 -74 35 -108 -24 -99
-120 -75 -120 30 0 40 5 53 24 69 27 22 35 23 61 9z"/>
<path d="M794 469 c-40 -44 -12 -139 41 -139 56 0 82 104 35 142 -29 24 -53
23 -76 -3z m59 -41 c6 -21 -4 -48 -19 -48 -18 0 -28 24 -20 45 7 18 33 20 39
3z"/>
<path d="M1153 383 c-41 -5 -60 -27 -43 -48 17 -20 53 -19 73 3 17 19 23 53
10 50 -5 0 -22 -3 -40 -5z"/>
</g>
</svg>
